<svg width="54" height="63" viewBox="0 0 54 63" fill="none" xmlns="http://www.w3.org/2000/svg">
<path d="M54 25.0385C54 38.8668 41 62 27 63C13.1929 63 0 38.8668 0 25.0385C0 11.2101 13.1929 0 27 0C40.8071 0 54 11.2101 54 25.0385Z" fill="#F70C18"/>
<path d="M23.4336 37.6562L16.3008 30.5234C15.8711 30.0938 15.8711 29.3633 16.3008 28.9336L17.8477 27.3867C18.2773 26.957 18.9648 26.957 19.3945 27.3867L24.25 32.1992L34.5625 21.8867C34.9922 21.457 35.6797 21.457 36.1094 21.8867L37.6562 23.4336C38.0859 23.8633 38.0859 24.5938 37.6562 25.0234L25.0234 37.6562C24.5938 38.0859 23.8633 38.0859 23.4336 37.6562Z" fill="white"/>
</svg>
