<svg width="40" height="40" viewBox="0 0 40 40" fill="none" xmlns="http://www.w3.org/2000/svg">
<g filter="url(#filter0_d_297_2537)">
<rect x="3" y="2" width="34" height="34" rx="17" fill="white"/>
</g>
<path d="M21.0352 25.9297L20.2617 26.7031C19.9102 27.0195 19.3828 27.0195 19.0664 26.7031L12.2461 19.8477C11.8945 19.5312 11.8945 19.0039 12.2461 18.6875L19.0664 11.832C19.3828 11.5156 19.9453 11.5156 20.2617 11.832L21.0352 12.6055C21.3867 12.957 21.3516 13.4844 21.0352 13.8359L16.7812 17.8438H26.9062C27.3633 17.8438 27.75 18.2305 27.75 18.6875V19.8125C27.75 20.3047 27.3633 20.6562 26.9062 20.6562H16.7812L21.0352 24.6992C21.3516 25.0508 21.3867 25.5781 21.0352 25.9297Z" fill="#0A0202"/>
<defs>
<filter id="filter0_d_297_2537" x="0" y="0" width="40" height="40" filterUnits="userSpaceOnUse" color-interpolation-filters="sRGB">
<feFlood flood-opacity="0" result="BackgroundImageFix"/>
<feColorMatrix in="SourceAlpha" type="matrix" values="0 0 0 0 0 0 0 0 0 0 0 0 0 0 0 0 0 0 127 0" result="hardAlpha"/>
<feOffset dy="1"/>
<feGaussianBlur stdDeviation="1.5"/>
<feComposite in2="hardAlpha" operator="out"/>
<feColorMatrix type="matrix" values="0 0 0 0 0 0 0 0 0 0 0 0 0 0 0 0 0 0 0.15 0"/>
<feBlend mode="normal" in2="BackgroundImageFix" result="effect1_dropShadow_297_2537"/>
<feBlend mode="normal" in="SourceGraphic" in2="effect1_dropShadow_297_2537" result="shape"/>
</filter>
</defs>
</svg>
