<svg width="81" height="81" viewBox="0 0 81 81" fill="none" xmlns="http://www.w3.org/2000/svg">
    <rect x="0.837524" y="0.979614" width="79" height="79" rx="39.5" fill="#9D9D9D"
        fill-opacity="0.12" stroke="#F7F7F7" />
    <path
        d="M56.4188 53.6046C54.0391 49.4905 50.3719 46.5405 46.0922 45.1421C48.2091 43.8819 49.8539 41.9616 50.7738 39.6761C51.6937 37.3907 51.838 34.8665 51.1845 32.4911C50.531 30.1157 49.1158 28.0205 47.1562 26.5273C45.1967 25.0341 42.8012 24.2253 40.3375 24.2253C37.8739 24.2253 35.4783 25.0341 33.5188 26.5273C31.5593 28.0205 30.1441 30.1157 29.4906 32.4911C28.837 34.8665 28.9813 37.3907 29.9013 39.6761C30.8212 41.9616 32.4659 43.8819 34.5828 45.1421C30.3031 46.539 26.636 49.489 24.2563 53.6046C24.169 53.7469 24.1111 53.9052 24.086 54.0702C24.0609 54.2353 24.0692 54.4037 24.1102 54.5655C24.1513 54.7272 24.2243 54.8792 24.325 55.0123C24.4257 55.1454 24.5521 55.257 24.6966 55.3405C24.8412 55.424 25.001 55.4777 25.1666 55.4984C25.3322 55.5191 25.5003 55.5065 25.661 55.4612C25.8217 55.4159 25.9716 55.3389 26.102 55.2347C26.2324 55.1305 26.3407 55.0013 26.4203 54.8546C29.3641 49.7671 34.5672 46.7296 40.3375 46.7296C46.1078 46.7296 51.311 49.7671 54.2547 54.8546C54.3344 55.0013 54.4426 55.1305 54.573 55.2347C54.7034 55.3389 54.8534 55.4159 55.014 55.4612C55.1747 55.5065 55.3428 55.5191 55.5084 55.4984C55.6741 55.4777 55.8339 55.424 55.9784 55.3405C56.123 55.257 56.2493 55.1454 56.35 55.0123C56.4507 54.8792 56.5238 54.7272 56.5648 54.5655C56.6059 54.4037 56.6141 54.2353 56.589 54.0702C56.5639 53.9052 56.506 53.7469 56.4188 53.6046ZM31.5875 35.4796C31.5875 33.749 32.1007 32.0573 33.0622 30.6184C34.0236 29.1794 35.3902 28.0579 36.989 27.3956C38.5879 26.7334 40.3472 26.5601 42.0446 26.8977C43.7419 27.2353 45.301 28.0687 46.5247 29.2924C47.7484 30.5161 48.5818 32.0752 48.9194 33.7726C49.257 35.4699 49.0837 37.2292 48.4215 38.8281C47.7592 40.4269 46.6377 41.7935 45.1988 42.755C43.7598 43.7164 42.0681 44.2296 40.3375 44.2296C38.0176 44.2271 35.7935 43.3044 34.1531 41.664C32.5127 40.0236 31.59 37.7995 31.5875 35.4796Z"
        fill="#9D9D9D" />
</svg>
