<svg width="16" height="15" viewBox="0 0 16 15" fill="none" xmlns="http://www.w3.org/2000/svg">
<path d="M1.875 5.5625C1.38281 5.5625 1 5.17969 1 4.6875C1 4.22266 1.38281 3.8125 1.875 3.8125H11.9922L10.4336 2.25391C10.0781 1.92578 10.0781 1.35156 10.4336 1.02344C10.7617 0.667969 11.3359 0.667969 11.6641 1.02344L14.7266 4.08594C15.082 4.41406 15.082 4.98828 14.7266 5.31641L11.6641 8.37891C11.5 8.54297 11.2812 8.625 11.0625 8.625C10.8164 8.625 10.5977 8.54297 10.4336 8.37891C10.0781 8.05078 10.0781 7.47656 10.4336 7.14844L11.9922 5.5625H1.875ZM14.125 9.9375C14.5898 9.9375 15 10.3477 15 10.8125C15 11.3047 14.5898 11.6875 14.125 11.6875H3.98047L5.53906 13.2734C5.89453 13.6016 5.89453 14.1758 5.53906 14.5039C5.375 14.668 5.15625 14.75 4.9375 14.75C4.69141 14.75 4.47266 14.668 4.30859 14.5039L1.24609 11.4414C0.890625 11.1133 0.890625 10.5391 1.24609 10.2109L4.30859 7.14844C4.63672 6.79297 5.21094 6.79297 5.53906 7.14844C5.89453 7.47656 5.89453 8.05078 5.53906 8.37891L3.98047 9.9375H14.125Z" fill="#F70C18"/>
</svg>
