<svg width="35" height="35" viewBox="0 0 35 35" fill="none" xmlns="http://www.w3.org/2000/svg">
<circle opacity="0.1" cx="17.5" cy="17.5" r="17.5" fill="#F70C18"/>
<path d="M11.5566 11.6074C11.2344 11.6953 11 11.959 11 12.2812C11 19.8105 17.0938 25.875 24.5938 25.875C24.9453 25.875 25.209 25.6699 25.2969 25.3477L26 22.3008C26.0586 21.9785 25.9121 21.627 25.5898 21.4805L22.3086 20.0742C22.0156 19.957 21.6934 20.0449 21.4883 20.2793L20.0234 22.0664C17.7383 20.9824 15.8926 19.1074 14.8379 16.8809L16.625 15.416C16.8594 15.2109 16.9473 14.8887 16.8301 14.5957L15.4238 11.3145C15.2773 10.9922 14.9258 10.8164 14.6035 10.9043L11.5566 11.6074Z" fill="#F70C18"/>
</svg>
