<svg width="21" height="20" viewBox="0 0 21 20" fill="none" xmlns="http://www.w3.org/2000/svg">
<g clip-path="url(#clip0_52_917)">
<path d="M0.125 3.33325H20.125V16.6666H0.125V3.33325ZM10.125 6.66658C11.0091 6.66658 11.8569 7.01777 12.482 7.6429C13.1071 8.26802 13.4583 9.11586 13.4583 9.99992C13.4583 10.884 13.1071 11.7318 12.482 12.3569C11.8569 12.9821 11.0091 13.3333 10.125 13.3333C9.24095 13.3333 8.3931 12.9821 7.76798 12.3569C7.14286 11.7318 6.79167 10.884 6.79167 9.99992C6.79167 9.11586 7.14286 8.26802 7.76798 7.6429C8.3931 7.01777 9.24095 6.66659 10.125 6.66658ZM4.56944 5.55547C4.56944 6.14484 4.33532 6.71007 3.91857 7.12682C3.50182 7.54357 2.93659 7.7777 2.34722 7.7777V12.2221C2.93659 12.2221 3.50182 12.4563 3.91857 12.873C4.33532 13.2898 4.56944 13.855 4.56944 14.4444H15.6806C15.6806 13.855 15.9147 13.2898 16.3314 12.873C16.7482 12.4563 17.3134 12.2221 17.9028 12.2221V7.7777C17.3134 7.7777 16.7482 7.54357 16.3314 7.12682C15.9147 6.71007 15.6806 6.14484 15.6806 5.55547H4.56944Z" fill="#F70C18"/>
</g>
<defs>
<clipPath id="clip0_52_917">
<rect width="20" height="20" fill="white" transform="translate(0.125)"/>
</clipPath>
</defs>
</svg>
