<svg width="35" height="35" viewBox="0 0 35 35" fill="none" xmlns="http://www.w3.org/2000/svg">
<circle opacity="0.1" cx="17.5" cy="17.5" r="17.5" fill="#F70C18"/>
<path d="M14.0625 16.5625C14.6602 16.5625 15.1875 17.0898 15.1875 17.6875C15.1875 18.3203 14.6602 18.8125 14.0625 18.8125C13.4297 18.8125 12.9375 18.3203 12.9375 17.6875C12.9375 17.0898 13.4297 16.5625 14.0625 16.5625ZM18 16.5625C18.5977 16.5625 19.125 17.0898 19.125 17.6875C19.125 18.3203 18.5977 18.8125 18 18.8125C17.3672 18.8125 16.875 18.3203 16.875 17.6875C16.875 17.0898 17.3672 16.5625 18 16.5625ZM21.9375 16.5625C22.5352 16.5625 23.0625 17.0898 23.0625 17.6875C23.0625 18.3203 22.5352 18.8125 21.9375 18.8125C21.3047 18.8125 20.8125 18.3203 20.8125 17.6875C20.8125 17.0898 21.3047 16.5625 21.9375 16.5625ZM18 10.375C22.957 10.375 27 13.6797 27 17.6875C27 21.7305 22.957 25 18 25C16.8398 25 15.75 24.8242 14.7305 24.5078C13.7109 25.2461 11.9883 26.125 9.84375 26.125C9.49219 26.125 9.17578 25.9492 9.03516 25.6328C8.92969 25.3164 8.96484 24.9648 9.21094 24.7188C9.24609 24.7188 10.3359 23.5234 10.8281 22.1523C9.66797 20.9219 9 19.375 9 17.6875C9 13.6797 13.0078 10.375 18 10.375ZM18 23.3125C22.0078 23.3125 25.3125 20.8164 25.3125 17.6875C25.3125 14.5938 22.0078 12.0625 18 12.0625C13.957 12.0625 10.6875 14.5938 10.6875 17.6875C10.6875 19.1992 11.4258 20.3242 12.0586 20.9922L12.7969 21.7656L12.4102 22.75C12.2344 23.2422 11.9883 23.7344 11.707 24.1562C12.5508 23.875 13.2539 23.4883 13.7461 23.1367L14.4141 22.6445L15.2227 22.8906C16.1016 23.1719 17.0508 23.3125 18 23.3125Z" fill="#F70C18"/>
</svg>
