<svg width="20" height="19" viewBox="0 0 20 19" fill="none" xmlns="http://www.w3.org/2000/svg">
<path d="M12.5 12.625V10.75H20V16.375C20 17.3906 19.1016 18.25 18.125 18.25H1.875C0.859375 18.25 0 17.3906 0 16.375V10.75H7.5V12.625C7.5 12.9766 7.77344 13.25 8.125 13.25H11.875C12.1875 13.25 12.5 12.9766 12.5 12.625ZM18.125 4.5C19.1016 4.5 20 5.39844 20 6.375V9.5H0V6.375C0 5.39844 0.859375 4.5 1.875 4.5H5V2.625C5 1.64844 5.85938 0.75 6.875 0.75H13.125C14.1016 0.75 15 1.64844 15 2.625V4.5H18.125ZM12.5 4.5V3.25H7.5V4.5H12.5Z" fill="#F70C18"/>
</svg>
