<svg width="209" height="192" viewBox="0 0 209 192" fill="none" xmlns="http://www.w3.org/2000/svg">
<ellipse cx="104" cy="99.5" rx="56" ry="55.5" fill="#F70C18"/>
<path d="M104 164.5C139.641 164.5 168.5 135.38 168.5 99.5C168.5 63.6205 139.641 34.5 104 34.5C68.3587 34.5 39.5 63.6205 39.5 99.5C39.5 135.38 68.3587 164.5 104 164.5Z" stroke="#F70C18" stroke-width="5"/>
<path d="M95.584 119.141L77.752 101.309C76.6777 100.234 76.6777 98.4082 77.752 97.334L81.6191 93.4668C82.6934 92.3926 84.4121 92.3926 85.4863 93.4668L97.625 105.498L123.406 79.7168C124.48 78.6426 126.199 78.6426 127.273 79.7168L131.141 83.584C132.215 84.6582 132.215 86.4844 131.141 87.5586L99.5586 119.141C98.4844 120.215 96.6582 120.215 95.584 119.141Z" fill="white"/>
<path d="M28.0547 166.91C28.5346 166.901 28.9404 166.553 29.0215 166.079C29.487 163.363 29.2543 160.619 28.5079 158.4C27.7783 156.231 26.4691 154.329 24.595 153.704C23.0608 153.193 21.6378 153.428 20.5586 154.258C19.5095 155.064 18.8995 156.342 18.7458 157.725C18.435 160.522 19.9388 163.921 23.8109 165.971C25.1333 166.671 26.5833 166.938 28.0547 166.91Z" stroke="#F99C32" stroke-width="2" stroke-linecap="round" stroke-linejoin="round"/>
<path d="M207.513 36.7305C205.426 38.1218 200.752 42.6574 198.748 49.6696C196.244 58.4348 190.818 59.687 182.47 60.9392" stroke="#F70C18" stroke-width="2" stroke-linecap="round" stroke-linejoin="round"/>
<circle cx="120.696" cy="7.51304" r="7.51304" fill="#F70C18"/>
<circle cx="149.079" cy="186.156" r="5.84348" fill="#FFB27D"/>
<circle cx="117.504" cy="181.504" r="2.50435" fill="#F70C18"/>
<circle cx="156.174" cy="26.1739" r="4.17391" fill="#F7A9A0"/>
<circle cx="195.826" cy="121.043" r="5.92826" stroke="#F70C18" stroke-width="1.5"/>
<circle cx="39.7221" cy="30.0522" r="5.09348" stroke="#FFB93E" stroke-width="1.5"/>
<circle cx="3.9873" cy="87.813" r="2.75" stroke="#F7A9A0" stroke-width="1.5"/>
</svg>
