<svg width="16" height="16" viewBox="0 0 16 16" fill="none" xmlns="http://www.w3.org/2000/svg">
<path d="M1.1777 0C0.865356 0 0.565803 0.124079 0.344941 0.344941C0.124079 0.565803 0 0.865356 0 1.1777V6.57864C6.67019e-05 6.89096 0.124189 7.19046 0.345066 7.41127L8.58898 15.6552C8.80983 15.876 9.10933 16 9.42161 16C9.7339 16 10.0334 15.876 10.2542 15.6552L15.6552 10.2542C15.876 10.0334 16 9.7339 16 9.42161C16 9.10933 15.876 8.80983 15.6552 8.58898L7.41127 0.345066C7.19046 0.124189 6.89096 6.67019e-05 6.57864 0H1.1777ZM5.88851 4.12195C5.88851 4.59047 5.70239 5.0398 5.3711 5.3711C5.0398 5.70239 4.59047 5.88851 4.12195 5.88851C3.65344 5.88851 3.20411 5.70239 2.87281 5.3711C2.54152 5.0398 2.3554 4.59047 2.3554 4.12195C2.3554 3.65344 2.54152 3.20411 2.87281 2.87281C3.20411 2.54152 3.65344 2.3554 4.12195 2.3554C4.59047 2.3554 5.0398 2.54152 5.3711 2.87281C5.70239 3.20411 5.88851 3.65344 5.88851 4.12195Z" fill="#F70C18"/>
</svg>
