<svg width="18" height="19" viewBox="0 0 18 19" fill="none" xmlns="http://www.w3.org/2000/svg">
<path d="M14.625 11.5C16.4531 11.5 18 13.0469 18 14.875C18 16.7383 16.4531 18.25 14.625 18.25H4.85156C5.30859 17.6875 5.94141 16.8789 6.50391 16H14.625C15.2227 16 15.75 15.5078 15.75 14.875C15.75 14.2773 15.2227 13.75 14.625 13.75H11.25C9.38672 13.75 7.875 12.2383 7.875 10.375C7.875 8.54688 9.38672 7 11.25 7H12.832C12.0234 5.875 11.25 4.53906 11.25 3.625C11.25 1.76172 12.7617 0.25 14.625 0.25C16.4883 0.25 18 1.76172 18 3.625C18 5.48828 14.625 9.25 14.625 9.25H11.25C10.6172 9.25 10.125 9.77734 10.125 10.375C10.125 11.0078 10.6172 11.5 11.25 11.5H14.625ZM14.625 2.5C13.9922 2.5 13.5 3.02734 13.5 3.625C13.5 4.25781 13.9922 4.75 14.625 4.75C15.2227 4.75 15.75 4.25781 15.75 3.625C15.75 3.02734 15.2227 2.5 14.625 2.5ZM3.375 9.25C5.23828 9.25 6.75 10.7617 6.75 12.625C6.75 14.4883 3.375 18.25 3.375 18.25C3.375 18.25 0 14.4883 0 12.625C0 10.7617 1.51172 9.25 3.375 9.25ZM3.375 13.75C3.97266 13.75 4.5 13.2578 4.5 12.625C4.5 12.0273 3.97266 11.5 3.375 11.5C2.74219 11.5 2.25 12.0273 2.25 12.625C2.25 13.2578 2.74219 13.75 3.375 13.75Z" fill="#F70C18"/>
</svg>
