<svg width="15" height="13" viewBox="0 0 15 13" fill="none" xmlns="http://www.w3.org/2000/svg">
<path d="M14.5605 6.87305L9.63867 11.7949C9.19922 12.2344 8.4375 11.9414 8.4375 11.2969V8.48438H4.45312C4.04297 8.48438 3.75 8.19141 3.75 7.78125V4.96875C3.75 4.58789 4.04297 4.26562 4.45312 4.26562H8.4375V1.45312C8.4375 0.837891 9.16992 0.515625 9.63867 0.955078L14.5605 5.87695C14.8242 6.16992 14.8242 6.60938 14.5605 6.87305ZM5.625 11.6484C5.625 11.8535 5.44922 12 5.27344 12H2.8125C1.25977 12 0 10.7402 0 9.1875V3.5625C0 2.00977 1.25977 0.75 2.8125 0.75H5.27344C5.44922 0.75 5.625 0.925781 5.625 1.10156V2.27344C5.625 2.47852 5.44922 2.625 5.27344 2.625H2.8125C2.28516 2.625 1.875 3.06445 1.875 3.5625V9.1875C1.875 9.71484 2.28516 10.125 2.8125 10.125H5.27344C5.44922 10.125 5.625 10.3008 5.625 10.4766V11.6484Z" fill="#F70C18"/>
</svg>
