<svg width="24" height="24" viewBox="0 0 24 24" fill="none" xmlns="http://www.w3.org/2000/svg">
<path d="M15 4.5H9L6.75 1.17188C6.42188 0.703125 6.79688 0 7.35938 0H16.5938C17.1562 0 17.5312 0.703125 17.2031 1.17188L15 4.5ZM9 6H15C15.1406 6.14062 15.375 6.28125 15.5625 6.42188C18.2344 8.10938 24 11.7656 24 19.5C24 21.9844 21.9844 24 19.5 24H4.5C1.96875 24 0 21.9844 0 19.5C0 11.7656 5.71875 8.10938 8.39062 6.42188C8.57812 6.28125 8.8125 6.14062 9 6ZM12.9375 10.5C12.9375 9.98438 12.5156 9.5625 11.9531 9.5625C11.4375 9.5625 11.0156 9.98438 11.0156 10.5V10.7812C10.7812 10.875 10.5 10.9219 10.3125 11.0625C9.60938 11.3438 9 11.9531 8.8125 12.7969C8.76562 13.2656 8.8125 13.7344 9 14.1562C9.1875 14.5781 9.51562 14.8594 9.79688 15.0938C10.3594 15.4688 11.0625 15.6562 11.625 15.8438H11.7188C12.375 16.0781 12.7969 16.2188 13.0781 16.4062C13.2188 16.5 13.2656 16.5469 13.2656 16.5938C13.2656 16.6406 13.3125 16.7344 13.2656 16.9219C13.2656 17.0625 13.1719 17.2031 12.8906 17.3438C12.6094 17.4375 12.1406 17.4844 11.5312 17.3906C11.25 17.3438 10.7812 17.2031 10.3125 17.0625C10.2188 17.0156 10.125 16.9688 10.0312 16.9219C9.51562 16.7812 9 17.0625 8.85938 17.5312C8.67188 18.0469 8.95312 18.5625 9.42188 18.7031C9.46875 18.75 9.5625 18.75 9.65625 18.7969C9.98438 18.9375 10.5938 19.125 11.0156 19.2188V19.5C11.0156 20.0625 11.4375 20.4844 11.9531 20.4844C12.5156 20.4844 12.9375 20.0625 12.9375 19.5V19.2656C13.1719 19.2188 13.4062 19.125 13.6406 19.0312C14.3906 18.75 14.9531 18.1406 15.1406 17.25C15.1875 16.7344 15.1875 16.2656 15 15.8438C14.8125 15.4219 14.4844 15.1406 14.2031 14.9062C13.6406 14.4844 12.8438 14.25 12.2812 14.0625H12.2344C11.5781 13.875 11.1562 13.7344 10.875 13.5469C10.7344 13.4531 10.6875 13.4062 10.6875 13.3594C10.6875 13.3594 10.6406 13.3125 10.6875 13.125C10.6875 13.0312 10.7812 12.8906 11.0625 12.75C11.3438 12.6094 11.8125 12.5625 12.4219 12.6094C12.6094 12.6562 13.2656 12.7969 13.4062 12.8438C13.9219 12.9844 14.4375 12.6562 14.5781 12.1875C14.7188 11.6719 14.3906 11.1562 13.9219 11.0156C13.6875 10.9688 13.2188 10.875 12.9375 10.8281V10.5Z" fill="#F70C18"/>
</svg>
