<svg width="14" height="16" viewBox="0 0 14 16" fill="none" xmlns="http://www.w3.org/2000/svg">
<path d="M6.5625 8.375C4.48242 8.375 2.8125 6.70508 2.8125 4.625C2.8125 2.57422 4.48242 0.875 6.5625 0.875C8.61328 0.875 10.3125 2.57422 10.3125 4.625C10.3125 6.70508 8.61328 8.375 6.5625 8.375ZM9.16992 9.3125C11.3379 9.3125 13.125 11.0996 13.125 13.2676V14.4688C13.125 15.2598 12.4805 15.875 11.7188 15.875H1.40625C0.615234 15.875 0 15.2598 0 14.4688V13.2676C0 11.0996 1.75781 9.3125 3.92578 9.3125H4.42383C5.06836 9.63477 5.80078 9.78125 6.5625 9.78125C7.32422 9.78125 8.02734 9.63477 8.67188 9.3125H9.16992Z" fill="#F70C18"/>
</svg>
