<svg width="20" height="14" viewBox="0 0 20 14" fill="none" xmlns="http://www.w3.org/2000/svg">
<path d="M18.543 4.4375C18.8242 4.4375 19.0352 4.71875 18.9648 4.96484L18.7539 5.80859C18.7188 6.01953 18.543 6.125 18.3672 6.125H17.6289C18.1211 6.54688 18.4375 7.14453 18.4375 7.8125V9.5C18.4375 10.0977 18.1914 10.5898 17.875 10.9766V12.875C17.875 13.5078 17.3477 14 16.75 14H15.625C14.9922 14 14.5 13.5078 14.5 12.875V11.75H5.5V12.875C5.5 13.5078 4.97266 14 4.375 14H3.25C2.61719 14 2.125 13.5078 2.125 12.875V10.9766C1.77344 10.5898 1.5625 10.0977 1.5625 9.5V7.8125C1.5625 7.14453 1.84375 6.54688 2.33594 6.125H1.63281C1.42188 6.125 1.24609 6.01953 1.21094 5.80859L1 4.96484C0.929688 4.71875 1.14062 4.4375 1.42188 4.4375H3.49609L4.09375 2.99609C4.69141 1.48438 6.13281 0.5 7.75 0.5H12.2148C13.832 0.5 15.2734 1.48438 15.8711 2.99609L16.4688 4.4375H18.543ZM6.16797 3.83984L5.5 5.5625H14.5L13.7969 3.83984C13.5156 3.17188 12.918 2.75 12.2148 2.75H7.75C7.04688 2.75 6.44922 3.17188 6.16797 3.83984ZM4.375 9.5C5.04297 9.5 6.0625 9.60547 6.0625 8.9375C6.0625 8.26953 5.04297 7.25 4.375 7.25C3.67188 7.25 3.25 7.70703 3.25 8.375C3.25 9.07812 3.67188 9.5 4.375 9.5ZM15.625 9.5C16.293 9.5 16.75 9.07812 16.75 8.375C16.75 7.70703 16.293 7.25 15.625 7.25C14.9219 7.25 13.9375 8.26953 13.9375 8.9375C13.9375 9.60547 14.9219 9.5 15.625 9.5Z" fill="#F70C18"/>
</svg>
