<svg width="31" height="30" viewBox="0 0 31 30" fill="none" xmlns="http://www.w3.org/2000/svg">
<circle cx="15.405" cy="14.9988" r="14.698" fill="#F70C18"/>
<path d="M21.295 8.84478C21.167 8.71686 21.0072 8.62538 20.8321 8.57976C20.657 8.53413 20.4729 8.53602 20.2987 8.58521H20.2892L8.07836 12.2903C7.87959 12.3475 7.70295 12.4638 7.57196 12.6239C7.44097 12.784 7.36185 12.9801 7.34513 13.1863C7.32841 13.3924 7.37489 13.5988 7.47837 13.7779C7.58186 13.9569 7.73744 14.1002 7.9244 14.1887L13.3714 16.7684L15.9511 22.2153C16.0325 22.3898 16.1622 22.5373 16.3247 22.6404C16.4873 22.7436 16.6759 22.798 16.8684 22.7974C16.8977 22.7974 16.927 22.7962 16.9562 22.7936C17.1617 22.777 17.3571 22.6979 17.5163 22.567C17.6755 22.4362 17.7908 22.2597 17.8469 22.0614L21.5494 9.85057C21.5494 9.84739 21.5494 9.84421 21.5494 9.84103C21.5993 9.66733 21.602 9.4835 21.5572 9.30841C21.5125 9.13332 21.422 8.9733 21.295 8.84478ZM16.8742 21.77L16.871 21.7789L14.367 16.4929L17.3723 13.487C17.4637 13.3907 17.5139 13.2626 17.5122 13.1299C17.5105 12.9972 17.457 12.8704 17.3632 12.7765C17.2693 12.6827 17.1425 12.6292 17.0098 12.6275C16.8771 12.6258 16.749 12.676 16.6528 12.7675L13.6468 15.7728L8.36018 13.2688H8.36909L20.5748 9.56493L16.8742 21.77Z" fill="white"/>
</svg>
