<svg width="15" height="16" viewBox="0 0 15 16" fill="none" xmlns="http://www.w3.org/2000/svg">
<path d="M13.6523 3.33594C14.1797 3.57031 14.5312 4.06836 14.5312 4.625C14.5312 11.1289 10.5469 14.7324 8.02734 15.7871C7.67578 15.9336 7.29492 15.9336 6.94336 15.7871C3.80859 14.4688 0.46875 10.4551 0.46875 4.625C0.46875 4.06836 0.791016 3.57031 1.31836 3.33594L6.94336 0.992188C7.11914 0.933594 7.29492 0.904297 7.5 0.904297C7.67578 0.904297 7.85156 0.933594 8.02734 0.992188L13.6523 3.33594ZM7.5 13.9707C10.2246 12.5938 12.5391 9.37109 12.627 4.94727L7.5 2.80859V13.9707Z" fill="#F70C18"/>
</svg>
