<svg width="14" height="16" viewBox="0 0 14 16" fill="none" xmlns="http://www.w3.org/2000/svg">
<path d="M10.3125 5.5625H13.125V13.5312C13.125 14.8496 12.0703 15.875 10.7812 15.875H2.34375C1.02539 15.875 0 14.8496 0 13.5312V5.5625H2.8125V4.625C2.8125 2.57422 4.48242 0.875 6.5625 0.875C8.61328 0.875 10.3125 2.57422 10.3125 4.625V5.5625ZM4.6875 4.625V5.5625H8.4375V4.625C8.4375 3.59961 7.58789 2.75 6.5625 2.75C5.50781 2.75 4.6875 3.59961 4.6875 4.625ZM9.375 8.14062C9.75586 8.14062 10.0781 7.84766 10.0781 7.4375C10.0781 7.05664 9.75586 6.73438 9.375 6.73438C8.96484 6.73438 8.67188 7.05664 8.67188 7.4375C8.67188 7.84766 8.96484 8.14062 9.375 8.14062ZM3.75 8.14062C4.13086 8.14062 4.45312 7.84766 4.45312 7.4375C4.45312 7.05664 4.13086 6.73438 3.75 6.73438C3.33984 6.73438 3.04688 7.05664 3.04688 7.4375C3.04688 7.84766 3.33984 8.14062 3.75 8.14062Z" fill="#F70C18"/>
</svg>
