<svg width="209" height="192" viewBox="0 0 209 192" fill="none" xmlns="http://www.w3.org/2000/svg">
<ellipse cx="104" cy="99.5" rx="56" ry="55.5" fill="#F70C18"/>
<path d="M104 164.5C139.641 164.5 168.5 135.38 168.5 99.5C168.5 63.6205 139.641 34.5 104 34.5C68.3587 34.5 39.5 63.6205 39.5 99.5C39.5 135.38 68.3587 164.5 104 164.5Z" stroke="#F70C18" stroke-width="5"/>
<path d="M134.186 115.248C136.119 118.686 133.648 122.875 129.674 122.875H78.2188C74.2441 122.875 71.7734 118.578 73.707 115.248L99.4883 70.4531C101.422 67.0156 106.471 67.123 108.404 70.4531L134.186 115.248ZM104 105.902C101.207 105.902 99.0586 108.158 99.0586 110.844C99.0586 113.637 101.207 115.785 104 115.785C106.686 115.785 108.941 113.637 108.941 110.844C108.941 108.158 106.686 105.902 104 105.902ZM99.2734 88.1777L100.025 102.787C100.133 103.539 100.67 103.969 101.314 103.969H106.578C107.223 103.969 107.76 103.539 107.867 102.787L108.619 88.1777C108.727 87.4258 108.082 86.7812 107.33 86.7812H100.562C99.8105 86.7812 99.166 87.4258 99.2734 88.1777Z" fill="white"/>
<path d="M28.0547 166.91C28.5346 166.901 28.9404 166.553 29.0215 166.079C29.487 163.363 29.2543 160.619 28.5079 158.4C27.7783 156.231 26.4691 154.329 24.595 153.704C23.0608 153.193 21.6378 153.428 20.5586 154.258C19.5095 155.064 18.8995 156.342 18.7458 157.725C18.435 160.522 19.9388 163.921 23.8109 165.971C25.1333 166.671 26.5833 166.938 28.0547 166.91Z" stroke="#F99C32" stroke-width="2" stroke-linecap="round" stroke-linejoin="round"/>
<path d="M207.513 36.7305C205.426 38.1218 200.752 42.6574 198.748 49.6696C196.244 58.4348 190.818 59.687 182.47 60.9392" stroke="#F70C18" stroke-width="2" stroke-linecap="round" stroke-linejoin="round"/>
<circle cx="120.696" cy="7.51304" r="7.51304" fill="#F70C18"/>
<circle cx="149.079" cy="186.156" r="5.84348" fill="#FFB27D"/>
<circle cx="117.504" cy="181.504" r="2.50435" fill="#F70C18"/>
<circle cx="156.174" cy="26.1739" r="4.17391" fill="#F7A9A0"/>
<circle cx="195.826" cy="121.043" r="5.92826" stroke="#F70C18" stroke-width="1.5"/>
<circle cx="39.7221" cy="30.0522" r="5.09348" stroke="#FFB93E" stroke-width="1.5"/>
<circle cx="3.9873" cy="87.813" r="2.75" stroke="#F7A9A0" stroke-width="1.5"/>
</svg>
