<svg width="24" height="25" viewBox="0 0 24 25" fill="none" xmlns="http://www.w3.org/2000/svg">
<path d="M13.875 19H10.125C9.46875 19 9 18.5312 9 17.875V10H4.875C4.03125 10 3.60938 9.01562 4.21875 8.40625L11.3438 1.28125C11.6719 0.953125 12.2812 0.953125 12.6094 1.28125L19.7344 8.40625C20.3438 9.01562 19.9219 10 19.0781 10H15V17.875C15 18.5312 14.4844 19 13.875 19ZM24 18.625V23.875C24 24.5312 23.4844 25 22.875 25H1.125C0.46875 25 0 24.5312 0 23.875V18.625C0 18.0156 0.46875 17.5 1.125 17.5H7.5V17.875C7.5 19.3281 8.67188 20.5 10.125 20.5H13.875C15.2812 20.5 16.5 19.3281 16.5 17.875V17.5H22.875C23.4844 17.5 24 18.0156 24 18.625ZM18.1875 22.75C18.1875 22.2344 17.7656 21.8125 17.25 21.8125C16.7344 21.8125 16.3125 22.2344 16.3125 22.75C16.3125 23.2656 16.7344 23.6875 17.25 23.6875C17.7656 23.6875 18.1875 23.2656 18.1875 22.75ZM21.1875 22.75C21.1875 22.2344 20.7656 21.8125 20.25 21.8125C19.7344 21.8125 19.3125 22.2344 19.3125 22.75C19.3125 23.2656 19.7344 23.6875 20.25 23.6875C20.7656 23.6875 21.1875 23.2656 21.1875 22.75Z" fill="#DADADA"/>
</svg>
